<?xml version="1.0" encoding="iso-8859-1"?>
<!-- Generator: Adobe Illustrator 19.0.0, SVG Export Plug-In . SVG Version: 6.00 Build 0)  -->
<svg version="1.1" id="Capa_1" xmlns="http://www.w3.org/2000/svg" xmlns:xlink="http://www.w3.org/1999/xlink" x="0px" y="0px"
	 viewBox="0 0 448 448" style="enable-background:new 0 0 448 448;" xml:space="preserve">
<polygon style="fill:#FFDC69;" points="336,0 104,0 104,8 104,40 24,40 24,144 104,144 104,176 104,448 216,448 312,448 424,448 
	424,88 424,80 344,0 "/>
<rect x="24" y="40" style="fill:#FF8C5A;" width="272" height="104"/>
<rect x="216" y="288" style="fill:#FEEC9F;" width="96" height="160"/>
<polygon style="fill:#FFFFFF;" points="256,256 232,256 232,232 272,192 296,216 "/>
<polygon style="fill:#FFB855;" points="344,0 336,0 336,88 424,88 424,80 "/>
<g>
	<rect x="240" y="312" style="fill:#FFFFFF;" width="24" height="16"/>
	<rect x="240" y="344" style="fill:#FFFFFF;" width="48" height="16"/>
	<rect x="240" y="376" style="fill:#FFFFFF;" width="48" height="16"/>
	<rect x="240" y="408" style="fill:#FFFFFF;" width="48" height="16"/>
	<rect x="48" y="104" style="fill:#FFFFFF;" width="16" height="16"/>
	<path style="fill:#FFFFFF;" d="M114.624,91.816c0-18.088-9.904-27.648-28.648-27.648H69.152v55.808h17.664
		C104.488,119.968,114.624,109.704,114.624,91.816z M85.152,106.792V77.344c6.832,0,13.144,1.76,13.144,14.472
		C98.296,105.088,91.272,106.792,85.152,106.792z"/>
	<path style="fill:#FFFFFF;" d="M146.216,120.968c15.784,0,25.984-11.448,25.984-29.16c0-17.672-9.952-28.648-25.984-28.648
		s-25.984,10.976-25.984,28.648C120.24,109.52,130.44,120.968,146.216,120.968z M146.216,77.168c6.04,0,9.656,5.472,9.656,14.64
		c0,9.344-3.696,15.144-9.656,15.144s-9.648-5.8-9.648-15.144C136.568,82.64,140.176,77.168,146.216,77.168z"/>
	<path style="fill:#FFFFFF;" d="M205.296,77.168c3.328,0,5.504,1.32,7.936,3.456l0.632,0.544l8.904-10.032l-0.56-0.56
		c-4.712-4.712-10.936-7.416-17.08-7.416c-13.576,0-27.312,10.072-27.312,29.32c0,17.304,10.592,28.488,26.984,28.488
		c7.088,0,13.52-2.944,18.12-8.296l0.488-0.56l-8.936-9.88l-0.624,0.672c-2.552,2.728-5.456,4.056-8.872,4.056
		c-6.776,0-10.816-5.592-10.816-14.968C194.144,83.256,198.728,77.168,205.296,77.168z"/>
	<path style="fill:#FFFFFF;" d="M271.568,64.168h-17.28l-3.352,9.352c-0.832,2.08-1.792,4.536-2.784,7.4
		c-0.32-0.768-0.624-1.504-0.92-2.208c-0.8-1.936-1.52-3.68-2.232-5.192l-3.872-9.344h-17.944l14.272,27.152l-15.104,28.656h17.272
		l4.208-10.176c0.96-2.328,1.944-4.728,2.92-7.4c1.128,2.8,2.112,5.112,3.192,7.424l4.544,10.16h17.936L257.312,92L271.568,64.168z"
		/>
</g>
<g>
	<rect x="336" y="328" style="fill:#FEEC9F;" width="40" height="16"/>
	<rect x="352" y="360" style="fill:#FEEC9F;" width="16" height="16"/>
	<rect x="384" y="360" style="fill:#FEEC9F;" width="16" height="16"/>
	<rect x="336" y="392" style="fill:#FEEC9F;" width="56" height="16"/>
	<rect x="152" y="360" style="fill:#FEEC9F;" width="40" height="16"/>
	<rect x="160" y="328" style="fill:#FEEC9F;" width="16" height="16"/>
	<rect x="128" y="328" style="fill:#FEEC9F;" width="16" height="16"/>
	<rect x="136" y="296" style="fill:#FEEC9F;" width="56" height="16"/>
	<rect x="320" y="216" style="fill:#FEEC9F;" width="56" height="16"/>
	<rect x="152" y="216" style="fill:#FEEC9F;" width="56" height="16"/>
	<rect x="344" y="248" style="fill:#FEEC9F;" width="16" height="16"/>
	<rect x="376" y="248" style="fill:#FEEC9F;" width="24" height="16"/>
	<rect x="128" y="248" style="fill:#FEEC9F;" width="16" height="16"/>
	<rect x="160" y="248" style="fill:#FEEC9F;" width="24" height="16"/>
</g>
<g>
</g>
<g>
</g>
<g>
</g>
<g>
</g>
<g>
</g>
<g>
</g>
<g>
</g>
<g>
</g>
<g>
</g>
<g>
</g>
<g>
</g>
<g>
</g>
<g>
</g>
<g>
</g>
<g>
</g>
</svg>
