<?xml version="1.0" encoding="iso-8859-1"?>
<!-- Generator: Adobe Illustrator 19.0.0, SVG Export Plug-In . SVG Version: 6.00 Build 0)  -->
<svg version="1.1" id="Capa_1" xmlns="http://www.w3.org/2000/svg" xmlns:xlink="http://www.w3.org/1999/xlink" x="0px" y="0px"
	 viewBox="0 0 448 448" style="enable-background:new 0 0 448 448;" xml:space="preserve">
<polygon style="fill:#FFDC69;" points="336,0 104,0 104,8 104,40 24,40 24,144 104,144 104,176 104,448 216,448 312,448 424,448 
	424,88 424,80 344,0 "/>
<rect x="24" y="40" style="fill:#FF8C5A;" width="272" height="104"/>
<rect x="216" y="288" style="fill:#FEEC9F;" width="96" height="160"/>
<polygon style="fill:#B4EBBE;" points="272,408 312,368 312,448 "/>
<polygon style="fill:#A0D778;" points="312,448 248,384 216,416 216,448 "/>
<path style="fill:#FFFFFF;" d="M312,288v48c-26.48,0-48-21.52-48-48H312z"/>
<polygon style="fill:#FFB855;" points="344,0 336,0 336,88 424,88 424,80 "/>
<g>
	<polygon style="fill:#FFFFFF;" points="240,216 224,216 224,184 256,184 256,200 240,200 	"/>
	<polygon style="fill:#FFFFFF;" points="256,264 224,264 224,232 240,232 240,248 256,248 	"/>
	<polygon style="fill:#FFFFFF;" points="304,216 288,216 288,200 272,200 272,184 304,184 	"/>
	<polygon style="fill:#FFFFFF;" points="304,264 272,264 272,248 288,248 288,232 304,232 	"/>
	<rect x="48" y="104" style="fill:#FFFFFF;" width="16" height="16"/>
	<path style="fill:#FFFFFF;" d="M91.536,120.96c14.128,0,19.16-10.672,19.16-20.656V64.168h-16v34.976
		c0,7.216-2.544,7.824-5.16,7.824c-2.232,0-4.56-1.808-6.088-4.712l-0.456-0.872l-11.04,8.28l0.376,0.648
		C76.536,117.576,82.64,120.96,91.536,120.96z"/>
	<path style="fill:#FFFFFF;" d="M120.64,119.96h16v-17.152h5.824c10.376,0,22.488-5.192,22.488-19.824
		c0-12.312-7.776-18.824-22.488-18.824H120.64V119.96z M141.792,77.168c5.248,0,7.488,1.744,7.488,5.824
		c0,4.528-2.52,6.824-7.488,6.824h-5.152v-12.64h5.152V77.168z"/>
	<path style="fill:#FFFFFF;" d="M216.728,114.104l0.304-0.248v-27.04h-22.328v13.336h7.992v6.168
		c-0.824,0.4-2.072,0.648-3.328,0.648c-8.96,0-13.312-4.896-13.312-14.984c0-8.856,4.816-14.816,11.984-14.816
		c4.056,0,6.208,1.216,8.768,3.456l0.632,0.552l8.904-10.04l-0.56-0.56c-4.776-4.776-11.136-7.408-17.912-7.408
		c-16.568,0-28.144,12.056-28.144,29.312c0,17.304,10.92,28.48,27.816,28.48C205.616,120.96,212.744,117.424,216.728,114.104z"/>
</g>
<g>
	<rect x="336" y="328" style="fill:#FEEC9F;" width="40" height="16"/>
	<rect x="352" y="360" style="fill:#FEEC9F;" width="16" height="16"/>
	<rect x="384" y="360" style="fill:#FEEC9F;" width="16" height="16"/>
	<rect x="336" y="392" style="fill:#FEEC9F;" width="56" height="16"/>
	<rect x="152" y="360" style="fill:#FEEC9F;" width="40" height="16"/>
	<rect x="160" y="328" style="fill:#FEEC9F;" width="16" height="16"/>
	<rect x="128" y="328" style="fill:#FEEC9F;" width="16" height="16"/>
	<rect x="136" y="296" style="fill:#FEEC9F;" width="56" height="16"/>
	<rect x="320" y="216" style="fill:#FEEC9F;" width="56" height="16"/>
	<rect x="152" y="216" style="fill:#FEEC9F;" width="56" height="16"/>
	<rect x="344" y="248" style="fill:#FEEC9F;" width="16" height="16"/>
	<rect x="376" y="248" style="fill:#FEEC9F;" width="24" height="16"/>
	<rect x="128" y="248" style="fill:#FEEC9F;" width="16" height="16"/>
	<rect x="160" y="248" style="fill:#FEEC9F;" width="24" height="16"/>
</g>
<g>
</g>
<g>
</g>
<g>
</g>
<g>
</g>
<g>
</g>
<g>
</g>
<g>
</g>
<g>
</g>
<g>
</g>
<g>
</g>
<g>
</g>
<g>
</g>
<g>
</g>
<g>
</g>
<g>
</g>
</svg>
