<?xml version="1.0" encoding="iso-8859-1"?>
<!-- Generator: Adobe Illustrator 19.0.0, SVG Export Plug-In . SVG Version: 6.00 Build 0)  -->
<svg version="1.1" id="Capa_1" xmlns="http://www.w3.org/2000/svg" xmlns:xlink="http://www.w3.org/1999/xlink" x="0px" y="0px"
	 viewBox="0 0 448 448" style="enable-background:new 0 0 448 448;" xml:space="preserve">
<polygon style="fill:#FFDC69;" points="336,0 104,0 104,8 104,40 24,40 24,144 104,144 104,176 104,448 216,448 312,448 424,448 
	424,88 424,80 344,0 "/>
<rect x="24" y="40" style="fill:#FF8C5A;" width="272" height="104"/>
<rect x="216" y="288" style="fill:#FEEC9F;" width="96" height="160"/>
<polygon style="fill:#FFFFFF;" points="256,256 232,256 232,232 272,192 296,216 "/>
<polygon style="fill:#FFB855;" points="344,0 336,0 336,88 424,88 424,80 "/>
<g>
	<rect x="240" y="312" style="fill:#FFFFFF;" width="24" height="16"/>
	<rect x="240" y="344" style="fill:#FFFFFF;" width="48" height="16"/>
	<rect x="240" y="376" style="fill:#FFFFFF;" width="48" height="16"/>
	<rect x="240" y="408" style="fill:#FFFFFF;" width="48" height="16"/>
	<rect x="48" y="104" style="fill:#FFFFFF;" width="16" height="16"/>
	<path style="fill:#FFFFFF;" d="M77.376,64.168v55.808h16.008v-17.16H99.2c10.376,0,22.496-5.192,22.496-19.832
		c0-12.312-7.784-18.824-22.496-18.824H77.376V64.168z M93.384,77.168h5.152c5.248,0,7.488,1.736,7.488,5.816
		c0,4.528-2.512,6.824-7.488,6.824h-5.152C93.384,89.808,93.384,77.168,93.384,77.168z"/>
	<path style="fill:#FFFFFF;" d="M144.8,102.816h5.824c10.376,0,22.496-5.192,22.496-19.832c0-12.312-7.784-18.824-22.496-18.824
		H128.8v55.808h16V102.816z M144.8,77.168h5.16c5.24,0,7.48,1.736,7.48,5.816c0,4.528-2.512,6.824-7.48,6.824h-5.16V77.168z"/>
	<polygon style="fill:#FFFFFF;" points="175.384,77.84 189.704,77.84 189.704,119.968 205.712,119.968 205.712,77.84 220.032,77.84 
		220.032,64.168 175.384,64.168 	"/>
</g>
<g>
	<rect x="336" y="328" style="fill:#FEEC9F;" width="40" height="16"/>
	<rect x="352" y="360" style="fill:#FEEC9F;" width="16" height="16"/>
	<rect x="384" y="360" style="fill:#FEEC9F;" width="16" height="16"/>
	<rect x="336" y="392" style="fill:#FEEC9F;" width="56" height="16"/>
	<rect x="152" y="360" style="fill:#FEEC9F;" width="40" height="16"/>
	<rect x="160" y="328" style="fill:#FEEC9F;" width="16" height="16"/>
	<rect x="128" y="328" style="fill:#FEEC9F;" width="16" height="16"/>
	<rect x="136" y="296" style="fill:#FEEC9F;" width="56" height="16"/>
	<rect x="320" y="216" style="fill:#FEEC9F;" width="56" height="16"/>
	<rect x="152" y="216" style="fill:#FEEC9F;" width="56" height="16"/>
	<rect x="344" y="248" style="fill:#FEEC9F;" width="16" height="16"/>
	<rect x="376" y="248" style="fill:#FEEC9F;" width="24" height="16"/>
	<rect x="128" y="248" style="fill:#FEEC9F;" width="16" height="16"/>
	<rect x="160" y="248" style="fill:#FEEC9F;" width="24" height="16"/>
</g>
<g>
</g>
<g>
</g>
<g>
</g>
<g>
</g>
<g>
</g>
<g>
</g>
<g>
</g>
<g>
</g>
<g>
</g>
<g>
</g>
<g>
</g>
<g>
</g>
<g>
</g>
<g>
</g>
<g>
</g>
</svg>
