<?xml version="1.0" encoding="iso-8859-1"?>
<!-- Generator: Adobe Illustrator 19.0.0, SVG Export Plug-In . SVG Version: 6.00 Build 0)  -->
<svg version="1.1" id="Capa_1" xmlns="http://www.w3.org/2000/svg" xmlns:xlink="http://www.w3.org/1999/xlink" x="0px" y="0px"
	 viewBox="0 0 448 448" style="enable-background:new 0 0 448 448;" xml:space="preserve">
<polygon style="fill:#CDEDFC;" points="336,0 104,0 104,8 104,40 24,40 24,144 104,144 104,176 104,448 216,448 312,448 424,448 
	424,88 424,80 344,0 "/>
<rect x="24" y="40" style="fill:#03A7F2;" width="272" height="104"/>
<rect x="216" y="288" style="fill:#68CAF7;" width="96" height="160"/>
<polygon style="fill:#025479;" points="272,408 312,368 312,448 "/>
<polygon style="fill:#027DB5;" points="312,448 248,384 216,416 216,448 "/>
<path style="fill:#FFFFFF;" d="M312,288v48c-26.48,0-48-21.52-48-48H312z"/>
<polygon style="fill:#68CAF7;" points="344,0 336,0 336,88 424,88 424,80 "/>
<g>
	<polygon style="fill:#FFFFFF;" points="309.784,264 291.576,264 288,258.128 264,216.128 245.784,248 264,248.056 268.568,248.064 
		278.128,264 218.216,264 264,183.872 	"/>
	<rect x="48" y="104" style="fill:#FFFFFF;" width="16" height="16"/>
	<path style="fill:#FFFFFF;" d="M99.192,64.168H77.368v55.808h16v-17.16h5.824c10.368,0,22.488-5.192,22.488-19.832
		C121.68,70.672,113.904,64.168,99.192,64.168z M93.376,77.168h5.16c5.248,0,7.488,1.736,7.488,5.816
		c0,4.528-2.52,6.824-7.488,6.824h-5.16C93.376,89.808,93.376,77.168,93.376,77.168z"/>
	<path style="fill:#FFFFFF;" d="M167.936,102.808c0-7.448-3.736-12.688-11.104-15.6l-7.96-3.12
		c-4.104-1.576-6.072-2.416-6.072-4.096c0-2.464,3.016-2.824,4.824-2.824c3.56,0,6.552,1.088,10.336,3.76l0.648,0.456l8.128-10.2
		l-0.536-0.528c-4.776-4.68-11.712-7.488-18.576-7.488c-11.968,0-20.984,7.592-20.984,17.664c0,7.168,4.168,12.936,11.416,15.832
		l6.76,2.832l1.176,0.472c3.896,1.536,5.624,2.296,5.624,4c0,0.824,0,2.984-5.32,2.984c-3.6,0-8.248-1.936-12.128-5.056
		l-0.648-0.512l-9.2,11.08l0.6,0.536c5.536,4.984,13.4,7.968,21.04,7.968C160.384,120.968,167.936,111.832,167.936,102.808z"/>
	<path style="fill:#FFFFFF;" d="M191.712,64.168h-16.824v55.808h17.656c17.672,0,27.816-10.264,27.816-28.16
		C220.36,73.728,210.456,64.168,191.712,64.168z M204.024,91.816c0,13.272-7.016,14.976-13.144,14.976V77.344
		C197.712,77.344,204.024,79.104,204.024,91.816z"/>
</g>
<g>
	<rect x="336" y="328" style="fill:#9ADCFA;" width="40" height="16"/>
	<rect x="352" y="360" style="fill:#9ADCFA;" width="16" height="16"/>
	<rect x="384" y="360" style="fill:#9ADCFA;" width="16" height="16"/>
	<rect x="336" y="392" style="fill:#9ADCFA;" width="56" height="16"/>
	<rect x="152" y="360" style="fill:#9ADCFA;" width="40" height="16"/>
	<rect x="160" y="328" style="fill:#9ADCFA;" width="16" height="16"/>
	<rect x="128" y="328" style="fill:#9ADCFA;" width="16" height="16"/>
	<rect x="136" y="296" style="fill:#9ADCFA;" width="56" height="16"/>
	<rect x="320" y="216" style="fill:#9ADCFA;" width="56" height="16"/>
	<rect x="152" y="216" style="fill:#9ADCFA;" width="56" height="16"/>
	<rect x="344" y="248" style="fill:#9ADCFA;" width="16" height="16"/>
	<rect x="376" y="248" style="fill:#9ADCFA;" width="24" height="16"/>
	<rect x="128" y="248" style="fill:#9ADCFA;" width="16" height="16"/>
	<rect x="160" y="248" style="fill:#9ADCFA;" width="24" height="16"/>
</g>
<g>
</g>
<g>
</g>
<g>
</g>
<g>
</g>
<g>
</g>
<g>
</g>
<g>
</g>
<g>
</g>
<g>
</g>
<g>
</g>
<g>
</g>
<g>
</g>
<g>
</g>
<g>
</g>
<g>
</g>
</svg>
